<?xml version="1.0" encoding="UTF-8" standalone="no"?>
<!-- Uploaded to: SVG Repo, www.svgrepo.com, Generator: SVG Repo Mixer Tools -->

<svg
   width="800px"
   height="800px"
   viewBox="0 0 24 24"
   fill="none"
   version="1.1"
   id="svg360"
   sodipodi:docname="camera-service.svg"
   inkscape:version="1.1.2 (0a00cf5339, 2022-02-04)"
   xmlns:inkscape="http://www.inkscape.org/namespaces/inkscape"
   xmlns:sodipodi="http://sodipodi.sourceforge.net/DTD/sodipodi-0.dtd"
   xmlns="http://www.w3.org/2000/svg"
   xmlns:svg="http://www.w3.org/2000/svg">
  <sodipodi:namedview
     id="namedview362"
     pagecolor="#ffffff"
     bordercolor="#666666"
     borderopacity="1.0"
     inkscape:pageshadow="2"
     inkscape:pageopacity="0.0"
     inkscape:pagecheckerboard="0"
     showgrid="false"
     inkscape:zoom="0.88375"
     inkscape:cx="399.43423"
     inkscape:cy="400"
     inkscape:window-width="2560"
     inkscape:window-height="999"
     inkscape:window-x="0"
     inkscape:window-y="0"
     inkscape:window-maximized="1"
     inkscape:current-layer="svg360" />
  <path
     d="M 10.801577,5.1067514 H 7.0573669 c -0.074887,0 -0.1361573,0.061258 -0.1361573,0.1361453 v 0.9054115 c 0,0.074887 0.06127,0.1361571 0.1361573,0.1361571 h 3.7442101 c 0.07481,0 0.136169,-0.06127 0.136169,-0.1361571 V 5.2428967 c 0,-0.074887 -0.06135,-0.1361453 -0.136169,-0.1361453 z"
     fill="url(#paint0_linear)"
     id="path2"
     style="fill:url(#paint0_linear);stroke-width:1.19133" />
  <g
     opacity="0.25"
     id="g34"
     transform="matrix(1.1913309,0,0,1.1913309,-2.2281281,-2.3000983)">
    <path
       opacity="0.25"
       d="M 8.76005,6.21729 H 8.61719 v 0.98857 h 0.14286 z"
       fill="url(#paint1_linear)"
       id="path4"
       style="fill:url(#paint1_linear)" />
    <path
       opacity="0.25"
       d="M 9.45717,6.21729 H 9.28003 v 0.98857 h 0.17714 z"
       fill="url(#paint2_linear)"
       id="path6"
       style="fill:url(#paint2_linear)" />
    <path
       opacity="0.25"
       d="M 9.07412,6.21729 H 8.89697 v 0.98857 h 0.17715 z"
       fill="url(#paint3_linear)"
       id="path8"
       style="fill:url(#paint3_linear)" />
    <path
       opacity="0.25"
       d="M 8.07424,6.21729 H 7.98853 v 0.98857 h 0.08571 z"
       fill="url(#paint4_linear)"
       id="path10"
       style="fill:url(#paint4_linear)" />
    <path
       opacity="0.25"
       d="M 7.9029,6.21729 H 7.82861 V 7.20586 H 7.9029 Z"
       fill="url(#paint5_linear)"
       id="path12"
       style="fill:url(#paint5_linear)" />
    <path
       opacity="0.25"
       d="M 8.26282,6.21729 H 8.17139 v 0.98857 h 0.09143 z"
       fill="url(#paint6_linear)"
       id="path14"
       style="fill:url(#paint6_linear)" />
    <path
       opacity="0.25"
       d="M 9.83413,6.21729 H 9.65698 v 0.98857 h 0.17715 z"
       fill="url(#paint7_linear)"
       id="path16"
       style="fill:url(#paint7_linear)" />
    <path
       opacity="0.25"
       d="M 8.48001,6.21729 H 8.36572 v 0.98857 h 0.11429 z"
       fill="url(#paint8_linear)"
       id="path18"
       style="fill:url(#paint8_linear)" />
    <path
       opacity="0.25"
       d="m 10.9085,6.21729 h -0.0743 v 0.98857 h 0.0743 z"
       fill="url(#paint9_linear)"
       id="path20"
       style="fill:url(#paint9_linear)" />
    <path
       opacity="0.25"
       d="M 11.0512,6.30314 C 11.0398,6.26886 11.017,6.24029 10.9827,6.22314 v 0.97143 c 0.0343,-0.01143 0.0571,-0.04571 0.0685,-0.08 z"
       fill="url(#paint10_linear)"
       id="path22"
       style="fill:url(#paint10_linear)" />
    <path
       opacity="0.25"
       d="M 7.7485,7.19457 V 6.22314 C 7.7085,6.24029 7.67993,6.28029 7.67993,6.326 v 0.76 c 0,0.05143 0.02857,0.09143 0.06857,0.10857 z"
       fill="url(#paint11_linear)"
       id="path24"
       style="fill:url(#paint11_linear)" />
    <path
       opacity="0.25"
       d="m 10.5599,6.21729 h -0.0914 v 0.98857 h 0.0914 z"
       fill="url(#paint12_linear)"
       id="path26"
       style="fill:url(#paint12_linear)" />
    <path
       opacity="0.25"
       d="m 10.3655,6.21729 h -0.1143 v 0.98857 h 0.1143 z"
       fill="url(#paint13_linear)"
       id="path28"
       style="fill:url(#paint13_linear)" />
    <path
       opacity="0.25"
       d="M 10.7427,6.21729 H 10.657 v 0.98857 h 0.0857 z"
       fill="url(#paint14_linear)"
       id="path30"
       style="fill:url(#paint14_linear)" />
    <path
       opacity="0.25"
       d="M 10.1143,6.21729 H 9.97144 v 0.98857 h 0.14286 z"
       fill="url(#paint15_linear)"
       id="path32"
       style="fill:url(#paint15_linear)" />
  </g>
  <path
     d="M 3.9873429,5.5284825 H 0.65161643 c -0.0408507,0 -0.0680726,0.027234 -0.0680726,0.068073 V 6.1752084 H 3.9873429 Z"
     fill="url(#paint16_linear)"
     id="path36"
     style="fill:url(#paint16_linear);stroke-width:1.19133" />
  <path
     d="M 6.0635587,6.0528349 H 4.5999253 V 5.1678428 c 0,-0.04085 0.027222,-0.068073 0.068073,-0.068073 h 1.3274761 c 0.04085,0 0.068085,0.027222 0.068085,0.068073 z"
     fill="url(#paint17_linear)"
     id="path38"
     style="fill:url(#paint17_linear);stroke-width:1.19133" />
  <path
     d="m 6.5945944,6.1685846 h -2.532424 c -0.074887,0 -0.1361572,-0.06127 -0.1361572,-0.1361453 V 5.3516771 c 0,-0.074887 0.06127,-0.1361572 0.1361572,-0.1361572 h 2.532424 c 0.074887,0 0.1361572,0.06127 0.1361572,0.1361572 v 0.6807622 c 0,0.074875 -0.06127,0.1361453 -0.1361572,0.1361453 z"
     fill="url(#paint18_linear)"
     id="path40"
     style="fill:url(#paint18_linear);stroke-width:1.19133" />
  <path
     d="m 11.305391,5.1473757 -0.939365,0.8985971 c -0.06135,0.06127 -0.149869,0.095306 -0.238266,0.095306 H 0.35879921 c -0.18381045,0 -0.34038706,0.1497742 -0.34038706,0.340387 v 1.735936 H 8.2556194 V 12.077478 H 19.113731 V 8.2176023 h 4.935565 V 5.4400977 c 0,-0.2178468 -0.177032,-0.3880284 -0.388017,-0.3880284 H 11.543657 c -0.08852,0 -0.170122,0.034037 -0.238266,0.095306 z"
     fill="url(#paint19_linear)"
     id="path42"
     style="fill:url(#paint19_linear);stroke-width:1.19133" />
  <path
     opacity="0.5"
     d="m 23.511409,5.0520693 h -1.021208 v 3.165533 h 1.021208 z"
     fill="url(#paint20_linear)"
     id="path44"
     style="fill:url(#paint20_linear);stroke-width:1.19133" />
  <path
     d="M 0.69917435,18.694488 H 23.36845 c 0.374435,0 0.680846,-0.306411 0.680846,-0.680846 V 8.2107163 H 0.01841215 v 9.8029257 c 0,0.381226 0.30635073,0.680846 0.6807622,0.680846 z"
     fill="url(#paint21_linear)"
     id="path46"
     style="fill:url(#paint21_linear);stroke-width:1.19133" />
  <path
     d="M 3.6877113,8.2176976 H 0.95787186 V 18.701397 H 3.6877113 Z"
     fill="url(#paint22_linear)"
     id="path48"
     style="fill:url(#paint22_linear);stroke-width:1.19133" />
  <path
     d="M 1.5840353,8.2176976 H 0.56288611 V 18.701397 H 1.5840353 Z"
     fill="url(#paint23_linear)"
     id="path50"
     style="fill:url(#paint23_linear);stroke-width:1.19133" />
  <path
     d="M 23.109693,18.694607 H 20.379878 V 8.2176976 h 2.729815 z"
     fill="url(#paint24_linear)"
     id="path52"
     style="fill:url(#paint24_linear);stroke-width:1.19133" />
  <path
     d="M 23.511409,8.2176976 H 22.490201 V 18.701397 h 1.021208 z"
     fill="url(#paint25_linear)"
     id="path54"
     style="fill:url(#paint25_linear);stroke-width:1.19133" />
  <path
     d="m 7.527192,12.663018 c -0.0068,1.123306 0.2450687,2.192049 0.7011817,3.131532 0.054456,0.115798 -0.034037,-0.04087 -0.074887,0.07493 -0.02042,0.05444 0.054467,0.401599 0.013617,0.449251 0.3812259,0.680727 0.8713751,1.307128 1.4772504,1.844896 0.2178587,0.197403 0.4493339,0.374434 0.6808099,0.537766 h 6.998116 c 1.987855,-1.177749 3.342635,-3.403752 3.349426,-5.943073 0.0068,-1.123187 -0.245056,-2.192048 -0.701217,-3.1314133 C 19.889765,9.4566784 19.910253,9.245646 20.025933,9.1026864 19.855811,8.7963508 19.658288,8.4968145 19.440513,8.2176976 H 9.1337852 C 8.1398697,9.4158429 7.540809,10.967992 7.527192,12.663018 Z"
     fill="url(#paint26_linear)"
     id="path56"
     style="fill:url(#paint26_linear);stroke-width:1.19133" />
  <path
     d="M 20.032605,8.9593606 C 19.651378,8.3058203 19.161265,7.7135621 18.562145,7.1961909 17.956234,6.6788078 17.289089,6.283965 16.58799,6.0116625 16.465402,6.1546222 16.274789,6.2022754 16.104548,6.1478197 15.40345,5.9231586 14.654579,5.8142471 13.878547,5.841469 10.365788,5.9572068 7.5474446,8.8572397 7.5202108,12.369951 c -0.0068,1.075652 0.2450688,2.096742 0.7011817,2.995362 0.08169,0.163332 0.06127,0.360855 -0.06127,0.503815 0.3812259,0.646654 0.8713751,1.245774 1.4704477,1.763169 0.6058398,0.517276 1.2729848,0.912202 1.9742018,1.184421 0.122588,-0.14296 0.313202,-0.190613 0.483323,-0.13605 0.701217,0.224566 1.450088,0.333573 2.226121,0.306292 3.512758,-0.115679 6.33109,-3.015736 6.351462,-6.528494 0.0068,-1.075652 -0.245057,-2.096742 -0.701218,-2.9953511 -0.06802,-0.1633792 -0.04765,-0.3607946 0.06815,-0.5037543 z"
     fill="url(#paint27_linear)"
     id="path58"
     style="fill:url(#paint27_linear);stroke-width:1.19133" />
  <path
     d="m 14.09656,18.796704 c 3.522884,0 6.378743,-2.855859 6.378743,-6.378744 0,-3.5228955 -2.855859,-6.378742 -6.378743,-6.378742 -3.522885,0 -6.3787073,2.8558465 -6.3787073,6.378742 0,3.522885 2.8558223,6.378744 6.3787073,6.378744 z"
     fill="url(#paint28_linear)"
     id="path60"
     style="fill:url(#paint28_linear);stroke-width:1.19133" />
  <path
     d="m 14.096798,18.571899 c 3.398748,0 6.154058,-2.755309 6.154058,-6.154057 0,-3.3988077 -2.75531,-6.154082 -6.154058,-6.154082 -3.398867,0 -6.1541174,2.7552743 -6.1541174,6.154082 0,3.398748 2.7552504,6.154057 6.1541174,6.154057 z"
     fill="url(#paint29_linear)"
     id="path62"
     style="fill:url(#paint29_linear);stroke-width:1.19133" />
  <path
     d="m 14.096679,17.305872 c 2.699436,0 4.887792,-2.188356 4.887792,-4.887912 0,-2.6994357 -2.188356,-4.8878391 -4.887792,-4.8878391 -2.699555,0 -4.8879115,2.1884034 -4.8879115,4.8878391 0,2.699556 2.1883565,4.887912 4.8879115,4.887912 z"
     fill="#000000"
     id="path64"
     style="stroke-width:1.19133" />
  <path
     d="m 14.096441,16.223548 c 2.101746,0 3.805468,-1.703722 3.805468,-3.805468 0,-2.101627 -1.703722,-3.8053967 -3.805468,-3.8053967 -2.101628,0 -3.805468,1.7037697 -3.805468,3.8053967 0,2.101746 1.70384,3.805468 3.805468,3.805468 z"
     fill="url(#paint30_radial)"
     id="path66"
     style="fill:url(#paint30_radial);stroke-width:1.19133" />
  <path
     d="m 14.096441,16.223548 c 2.101746,0 3.805468,-1.703722 3.805468,-3.805468 0,-2.101627 -1.703722,-3.8053967 -3.805468,-3.8053967 -2.101628,0 -3.805468,1.7037697 -3.805468,3.8053967 0,2.101746 1.70384,3.805468 3.805468,3.805468 z"
     fill="url(#paint31_radial)"
     id="path68"
     style="fill:url(#paint31_radial);stroke-width:1.19133" />
  <path
     d="m 12.803132,13.670526 c -0.980346,0 -2.192049,0.340483 -2.8524036,1.341201 0.6944266,0.748751 1.6882346,1.211703 2.7911696,1.211703 2.103533,0 3.805349,-1.701936 3.805349,-3.80547 0,-0.735169 -0.204194,-1.416015 -0.564929,-2.001435 -0.14296,2.021927 -1.946993,3.254001 -3.179186,3.254001 z"
     fill="url(#paint32_radial)"
     id="path70"
     style="fill:url(#paint32_radial);stroke-width:1.19133" />
  <path
     opacity="0.25"
     d="m 14.096441,16.223548 c 2.101746,0 3.805468,-1.703722 3.805468,-3.805468 0,-2.101627 -1.703722,-3.8053967 -3.805468,-3.8053967 -2.101628,0 -3.805468,1.7037697 -3.805468,3.8053967 0,2.101746 1.70384,3.805468 3.805468,3.805468 z"
     fill="url(#paint33_radial)"
     id="path72"
     style="fill:url(#paint33_radial);stroke-width:1.19133" />
  <path
     d="m 15.430851,9.3339865 c -1.994646,0 -3.614856,1.6201855 -3.614856,3.6148315 0,0.388017 0.06124,0.755661 0.170123,1.102816 0.115797,-0.245058 0.3132,-0.490115 0.612701,-0.735171 1.606628,-1.293428 2.906847,0.09531 5.31,-1.102816 -0.06135,-1.082442 -0.571839,-2.049089 -1.347991,-2.7026525 -0.360735,-0.1157379 -0.735171,-0.177008 -1.129977,-0.177008 z"
     fill="url(#paint34_linear)"
     id="path74"
     style="fill:url(#paint34_linear);stroke-width:1.19133" />
  <path
     opacity="0.5"
     d="m 13.892365,8.6126833 c -1.232193,0.5786413 -2.089951,1.8244517 -2.089951,3.2812117 0,1.994645 1.62021,3.614855 3.614856,3.614855 0.394806,0 0.776032,-0.06124 1.130096,-0.183823 -0.660355,0.558258 -1.518113,0.898621 -2.457596,0.898621 -2.103534,0 -3.805469,-1.701816 -3.805469,-3.805468 0.0068,-2.035389 1.599838,-3.6964852 3.608064,-3.8053967 z"
     fill="url(#paint35_radial)"
     id="path76"
     style="fill:url(#paint35_radial);stroke-width:1.19133" />
  <path
     opacity="0.5"
     d="m 14.048906,14.766431 c -0.530975,0.483324 -1.606628,0.170242 -2.396242,-0.701098 -0.789734,-0.871458 -1.000718,-1.967483 -0.462951,-2.450806 0.530975,-0.483322 1.606628,-0.170122 2.396243,0.701218 0.789733,0.871339 0.993927,1.967363 0.46295,2.450686 z"
     fill="url(#paint36_radial)"
     id="path78"
     style="fill:url(#paint36_radial);stroke-width:1.19133" />
  <path
     d="m 20.631725,7.6733785 c 0.567788,0 1.028,-0.4602231 1.028,-1.0279518 0,-0.5677169 -0.460212,-1.0279398 -1.028,-1.0279398 -0.567669,0 -1.02788,0.4602229 -1.02788,1.0279398 0,0.5677287 0.460211,1.0279518 1.02788,1.0279518 z"
     fill="url(#paint37_linear)"
     id="path80"
     style="fill:url(#paint37_linear);stroke-width:1.19133" />
  <path
     d="m 7.4456693,7.5912957 c 0.2330957,0 0.4220647,-0.1889689 0.4220647,-0.4220766 0,-0.2330958 -0.188969,-0.4220646 -0.4220647,-0.4220646 -0.2331078,0 -0.4220767,0.1889688 -0.4220767,0.4220646 0,0.2331077 0.1889689,0.4220766 0.4220767,0.4220766 z"
     fill="url(#paint38_linear)"
     id="path82"
     style="fill:url(#paint38_linear);stroke-width:1.19133" />
  <path
     d="m 7.4455025,7.4141449 c 0.135359,0 0.2450806,-0.1097335 0.2450806,-0.2450806 0,-0.1353471 -0.1097216,-0.2450686 -0.2450806,-0.2450686 -0.1353471,0 -0.2450687,0.1097215 -0.2450687,0.2450686 0,0.1353471 0.1097216,0.2450806 0.2450687,0.2450806 z"
     fill="url(#paint39_linear)"
     id="path84"
     style="fill:url(#paint39_linear);stroke-width:1.19133" />
  <path
     d="m 7.4453714,7.3394127 c 0.093996,0 0.1701936,-0.076198 0.1701936,-0.1701936 0,-0.093996 -0.076198,-0.1701935 -0.1701936,-0.1701935 -0.093996,0 -0.1701934,0.076198 -0.1701934,0.1701935 0,0.093996 0.076197,0.1701936 0.1701934,0.1701936 z"
     fill="#000000"
     id="path86"
     style="stroke-width:1.19133" />
  <path
     d="m 6.5945944,6.1685846 h -2.532424 c -0.074887,0 -0.1361572,-0.06127 -0.1361572,-0.1361453 V 5.3516771 c 0,-0.074887 0.06127,-0.1361572 0.1361572,-0.1361572 h 2.532424 c 0.074887,0 0.1361572,0.06127 0.1361572,0.1361572 v 0.6807622 c 0,0.074875 -0.06127,0.1361453 -0.1361572,0.1361453 z"
     fill="url(#paint40_linear)"
     id="path88"
     style="fill:url(#paint40_linear);stroke-width:1.19133" />
  <path
     d="M 4.8722993,5.3243003 H 4.7633758 v 0.7420324 h 0.1089235 z"
     fill="url(#paint41_linear)"
     id="path90"
     style="fill:url(#paint41_linear);stroke-width:1.19133" />
  <path
     d="M 5.4032874,5.3243003 H 5.2671301 v 0.7420324 h 0.1361573 z"
     fill="url(#paint42_linear)"
     id="path92"
     style="fill:url(#paint42_linear);stroke-width:1.19133" />
  <path
     d="M 5.1173798,5.3243003 H 4.9812226 v 0.7420324 h 0.1361572 z"
     fill="url(#paint43_linear)"
     id="path94"
     style="fill:url(#paint43_linear);stroke-width:1.19133" />
  <path
     d="M 5.6824996,5.3243003 H 5.5463542 v 0.7420324 h 0.1361454 z"
     fill="url(#paint44_linear)"
     id="path96"
     style="fill:url(#paint44_linear);stroke-width:1.19133" />
  <path
     d="m 4.6680575,5.3243003 h -0.088492 v 0.7420324 h 0.088492 z"
     fill="url(#paint45_linear)"
     id="path98"
     style="fill:url(#paint45_linear);stroke-width:1.19133" />
  <path
     d="m 6.0839304,5.3243003 h -0.088504 v 0.7420324 h 0.088504 z"
     fill="url(#paint46_linear)"
     id="path100"
     style="fill:url(#paint46_linear);stroke-width:1.19133" />
  <path
     d="M 5.8934843,5.3243003 H 5.7845608 v 0.7420324 h 0.1089235 z"
     fill="url(#paint47_linear)"
     id="path102"
     style="fill:url(#paint47_linear);stroke-width:1.19133" />
  <defs
     id="defs358">
    <linearGradient
       id="paint0_linear"
       x1="11.7851"
       y1="9.82907"
       x2="8.89939"
       y2="6.10525"
       gradientUnits="userSpaceOnUse"
       gradientTransform="matrix(1.1913309,0,0,1.1913309,-2.2281281,-2.3000983)">
      <stop
         stop-color="#8EA5A8"
         id="stop104" />
      <stop
         offset="1"
         stop-color="#CFDCDE"
         id="stop106" />
    </linearGradient>
    <linearGradient
       id="paint1_linear"
       x1="8.68974"
       y1="7.13762"
       x2="8.68974"
       y2="5.89759"
       gradientUnits="userSpaceOnUse">
      <stop
         stop-color="#8EA5A8"
         id="stop109" />
      <stop
         offset="1"
         stop-color="#CFDCDE"
         id="stop111" />
    </linearGradient>
    <linearGradient
       id="paint2_linear"
       x1="9.36653"
       y1="7.13762"
       x2="9.36653"
       y2="5.89759"
       gradientUnits="userSpaceOnUse">
      <stop
         stop-color="#8EA5A8"
         id="stop114" />
      <stop
         offset="1"
         stop-color="#CFDCDE"
         id="stop116" />
    </linearGradient>
    <linearGradient
       id="paint3_linear"
       x1="8.98805"
       y1="7.13762"
       x2="8.98805"
       y2="5.89759"
       gradientUnits="userSpaceOnUse">
      <stop
         stop-color="#8EA5A8"
         id="stop119" />
      <stop
         offset="1"
         stop-color="#CFDCDE"
         id="stop121" />
    </linearGradient>
    <linearGradient
       id="paint4_linear"
       x1="8.03224"
       y1="7.13762"
       x2="8.03224"
       y2="5.89759"
       gradientUnits="userSpaceOnUse">
      <stop
         stop-color="#8EA5A8"
         id="stop124" />
      <stop
         offset="1"
         stop-color="#CFDCDE"
         id="stop126" />
    </linearGradient>
    <linearGradient
       id="paint5_linear"
       x1="7.86434"
       y1="7.13762"
       x2="7.86434"
       y2="5.89759"
       gradientUnits="userSpaceOnUse">
      <stop
         stop-color="#8EA5A8"
         id="stop129" />
      <stop
         offset="1"
         stop-color="#CFDCDE"
         id="stop131" />
    </linearGradient>
    <linearGradient
       id="paint6_linear"
       x1="8.21841"
       y1="7.13762"
       x2="8.21841"
       y2="5.89759"
       gradientUnits="userSpaceOnUse">
      <stop
         stop-color="#8EA5A8"
         id="stop134" />
      <stop
         offset="1"
         stop-color="#CFDCDE"
         id="stop136" />
    </linearGradient>
    <linearGradient
       id="paint7_linear"
       x1="9.74462"
       y1="7.13762"
       x2="9.74462"
       y2="5.89759"
       gradientUnits="userSpaceOnUse">
      <stop
         stop-color="#8EA5A8"
         id="stop139" />
      <stop
         offset="1"
         stop-color="#CFDCDE"
         id="stop141" />
    </linearGradient>
    <linearGradient
       id="paint8_linear"
       x1="8.42508"
       y1="7.13762"
       x2="8.42508"
       y2="5.89759"
       gradientUnits="userSpaceOnUse">
      <stop
         stop-color="#8EA5A8"
         id="stop144" />
      <stop
         offset="1"
         stop-color="#CFDCDE"
         id="stop146" />
    </linearGradient>
    <linearGradient
       id="paint9_linear"
       x1="10.8686"
       y1="7.13762"
       x2="10.8686"
       y2="5.89759"
       gradientUnits="userSpaceOnUse">
      <stop
         stop-color="#8EA5A8"
         id="stop149" />
      <stop
         offset="1"
         stop-color="#CFDCDE"
         id="stop151" />
    </linearGradient>
    <linearGradient
       id="paint10_linear"
       x1="11.0165"
       y1="7.13776"
       x2="11.0165"
       y2="5.89773"
       gradientUnits="userSpaceOnUse">
      <stop
         stop-color="#8EA5A8"
         id="stop154" />
      <stop
         offset="1"
         stop-color="#CFDCDE"
         id="stop156" />
    </linearGradient>
    <linearGradient
       id="paint11_linear"
       x1="7.71625"
       y1="7.13776"
       x2="7.71625"
       y2="5.89773"
       gradientUnits="userSpaceOnUse">
      <stop
         stop-color="#8EA5A8"
         id="stop159" />
      <stop
         offset="1"
         stop-color="#CFDCDE"
         id="stop161" />
    </linearGradient>
    <linearGradient
       id="paint12_linear"
       x1="10.5145"
       y1="7.13762"
       x2="10.5145"
       y2="5.89759"
       gradientUnits="userSpaceOnUse">
      <stop
         stop-color="#8EA5A8"
         id="stop164" />
      <stop
         offset="1"
         stop-color="#CFDCDE"
         id="stop166" />
    </linearGradient>
    <linearGradient
       id="paint13_linear"
       x1="10.3077"
       y1="7.13762"
       x2="10.3077"
       y2="5.89759"
       gradientUnits="userSpaceOnUse">
      <stop
         stop-color="#8EA5A8"
         id="stop169" />
      <stop
         offset="1"
         stop-color="#CFDCDE"
         id="stop171" />
    </linearGradient>
    <linearGradient
       id="paint14_linear"
       x1="10.7006"
       y1="7.13762"
       x2="10.7006"
       y2="5.89759"
       gradientUnits="userSpaceOnUse">
      <stop
         stop-color="#8EA5A8"
         id="stop174" />
      <stop
         offset="1"
         stop-color="#CFDCDE"
         id="stop176" />
    </linearGradient>
    <linearGradient
       id="paint15_linear"
       x1="10.0433"
       y1="7.13762"
       x2="10.0433"
       y2="5.89759"
       gradientUnits="userSpaceOnUse">
      <stop
         stop-color="#8EA5A8"
         id="stop179" />
      <stop
         offset="1"
         stop-color="#CFDCDE"
         id="stop181" />
    </linearGradient>
    <linearGradient
       id="paint16_linear"
       x1="2.17696"
       y1="8.58732"
       x2="5.3484"
       y2="5.18732"
       gradientUnits="userSpaceOnUse"
       gradientTransform="matrix(1.1913309,0,0,1.1913309,-2.2281281,-2.3000983)">
      <stop
         stop-color="white"
         id="stop184" />
      <stop
         offset="1"
         stop-color="#99AFB3"
         id="stop186" />
    </linearGradient>
    <linearGradient
       id="paint17_linear"
       x1="6.16081"
       y1="5.81809"
       x2="6.30367"
       y2="6.45619"
       gradientUnits="userSpaceOnUse"
       gradientTransform="matrix(1.1913309,0,0,1.1913309,-2.2281281,-2.3000983)">
      <stop
         stop-color="#8EA5A8"
         id="stop189" />
      <stop
         offset="1"
         stop-color="#CFDCDE"
         id="stop191" />
    </linearGradient>
    <linearGradient
       id="paint18_linear"
       x1="7.1165"
       y1="9.21377"
       x2="6.32364"
       y2="6.64235"
       gradientUnits="userSpaceOnUse"
       gradientTransform="matrix(1.1913309,0,0,1.1913309,-2.2281281,-2.3000983)">
      <stop
         stop-color="#BBCACC"
         id="stop194" />
      <stop
         offset="0.4234"
         stop-color="#8EA5A8"
         id="stop196" />
      <stop
         offset="1"
         stop-color="#CFDCDE"
         id="stop198" />
    </linearGradient>
    <linearGradient
       id="paint19_linear"
       x1="11.8912"
       y1="11.1211"
       x2="12.1197"
       y2="2.51156"
       gradientUnits="userSpaceOnUse"
       gradientTransform="matrix(1.1913309,0,0,1.1913309,-2.2281281,-2.3000983)">
      <stop
         stop-color="white"
         id="stop201" />
      <stop
         offset="1"
         stop-color="#99AFB3"
         id="stop203" />
    </linearGradient>
    <linearGradient
       id="paint20_linear"
       x1="21.593"
       y1="7.49905"
       x2="20.7402"
       y2="7.49905"
       gradientUnits="userSpaceOnUse"
       gradientTransform="matrix(1.1913309,0,0,1.1913309,-2.2281281,-2.3000983)">
      <stop
         stop-color="white"
         stop-opacity="0"
         id="stop206" />
      <stop
         offset="0.4627"
         stop-color="white"
         id="stop208" />
      <stop
         offset="1"
         stop-color="white"
         stop-opacity="0"
         id="stop210" />
    </linearGradient>
    <linearGradient
       id="paint21_linear"
       x1="9.05969"
       y1="-14.6179"
       x2="13.3646"
       y2="26.1487"
       gradientUnits="userSpaceOnUse"
       gradientTransform="matrix(1.1913309,0,0,1.1913309,-2.2281281,-2.3000983)">
      <stop
         stop-color="#939FA1"
         id="stop213" />
      <stop
         offset="1"
         id="stop215" />
    </linearGradient>
    <linearGradient
       id="paint22_linear"
       x1="2.6922"
       y1="13.2262"
       x2="4.98022"
       y2="13.2262"
       gradientUnits="userSpaceOnUse"
       gradientTransform="matrix(1.1913309,0,0,1.1913309,-2.2281281,-2.3000983)">
      <stop
         stop-color="#2E3233"
         stop-opacity="0"
         id="stop218" />
      <stop
         offset="0.4627"
         stop-color="#2E3233"
         id="stop220" />
      <stop
         offset="1"
         stop-color="#2E3233"
         stop-opacity="0"
         id="stop222" />
    </linearGradient>
    <linearGradient
       id="paint23_linear"
       x1="2.34974"
       y1="13.2262"
       x2="3.20256"
       y2="13.2262"
       gradientUnits="userSpaceOnUse"
       gradientTransform="matrix(1.1913309,0,0,1.1913309,-2.2281281,-2.3000983)">
      <stop
         stop-color="#484D4F"
         stop-opacity="0"
         id="stop225" />
      <stop
         offset="0.4627"
         stop-color="#484D4F"
         id="stop227" />
      <stop
         offset="1"
         stop-color="#484D4F"
         stop-opacity="0"
         id="stop229" />
    </linearGradient>
    <linearGradient
       id="paint24_linear"
       x1="21.2506"
       y1="13.2262"
       x2="18.9626"
       y2="13.2262"
       gradientUnits="userSpaceOnUse"
       gradientTransform="matrix(1.1913309,0,0,1.1913309,-2.2281281,-2.3000983)">
      <stop
         stop-color="#2E3233"
         stop-opacity="0"
         id="stop232" />
      <stop
         offset="0.4627"
         stop-color="#2E3233"
         id="stop234" />
      <stop
         offset="1"
         stop-color="#2E3233"
         stop-opacity="0"
         id="stop236" />
    </linearGradient>
    <linearGradient
       id="paint25_linear"
       x1="21.593"
       y1="13.2262"
       x2="20.7402"
       y2="13.2262"
       gradientUnits="userSpaceOnUse"
       gradientTransform="matrix(1.1913309,0,0,1.1913309,-2.2281281,-2.3000983)">
      <stop
         stop-color="#484D4F"
         stop-opacity="0"
         id="stop239" />
      <stop
         offset="0.4627"
         stop-color="#484D4F"
         id="stop241" />
      <stop
         offset="1"
         stop-color="#484D4F"
         stop-opacity="0"
         id="stop243" />
    </linearGradient>
    <linearGradient
       id="paint26_linear"
       x1="13.7115"
       y1="10.3887"
       x2="13.7115"
       y2="21.8828"
       gradientUnits="userSpaceOnUse"
       gradientTransform="matrix(1.1913309,0,0,1.1913309,-2.2281281,-2.3000983)">
      <stop
         offset="0.4627"
         id="stop246" />
      <stop
         offset="1"
         stop-color="#2E3233"
         stop-opacity="0"
         id="stop248" />
    </linearGradient>
    <linearGradient
       id="paint27_linear"
       x1="8.26232"
       y1="5.99609"
       x2="19.0242"
       y2="18.5675"
       gradientUnits="userSpaceOnUse"
       gradientTransform="matrix(1.1913309,0,0,1.1913309,-2.2281281,-2.3000983)">
      <stop
         stop-color="white"
         id="stop251" />
      <stop
         offset="1"
         stop-color="#99AFB3"
         id="stop253" />
    </linearGradient>
    <linearGradient
       id="paint28_linear"
       x1="15.6032"
       y1="1.53091"
       x2="13.346"
       y2="14.388"
       gradientUnits="userSpaceOnUse"
       gradientTransform="matrix(1.1913309,0,0,1.1913309,-2.2281281,-2.3000983)">
      <stop
         stop-color="#8EA5A8"
         id="stop256" />
      <stop
         offset="1"
         stop-color="#BBCACC"
         id="stop258" />
    </linearGradient>
    <linearGradient
       id="paint29_linear"
       x1="14.6148"
       y1="20.7618"
       x2="12.5931"
       y2="2.10366"
       gradientUnits="userSpaceOnUse"
       gradientTransform="matrix(1.1913309,0,0,1.1913309,-2.2281281,-2.3000983)">
      <stop
         stop-color="white"
         id="stop261" />
      <stop
         offset="1"
         stop-color="#99AFB3"
         id="stop263" />
    </linearGradient>
    <radialGradient
       id="paint30_radial"
       cx="0"
       cy="0"
       r="1"
       gradientUnits="userSpaceOnUse"
       gradientTransform="matrix(16.378178,0,0,16.378178,16.231306,22.564407)">
      <stop
         stop-color="#17BBFE"
         id="stop266" />
      <stop
         offset="1"
         id="stop268" />
    </radialGradient>
    <radialGradient
       id="paint31_radial"
       cx="0"
       cy="0"
       r="1"
       gradientUnits="userSpaceOnUse"
       gradientTransform="matrix(4.8184689,0,0,4.8184689,14.237971,12.530303)">
      <stop
         offset="0.6629"
         stop-color="#17BBFE"
         stop-opacity="0"
         id="stop271" />
      <stop
         offset="1"
         stop-color="#17BBFE"
         stop-opacity="0.75"
         id="stop273" />
    </radialGradient>
    <radialGradient
       id="paint32_radial"
       cx="0"
       cy="0"
       r="1"
       gradientUnits="userSpaceOnUse"
       gradientTransform="matrix(6.3022357,0,0,6.3022357,11.599054,8.0534249)">
      <stop
         stop-color="#80DAFE"
         id="stop276" />
      <stop
         offset="1"
         stop-color="#80DAFE"
         stop-opacity="0"
         id="stop278" />
    </radialGradient>
    <radialGradient
       id="paint33_radial"
       cx="0"
       cy="0"
       r="1"
       gradientUnits="userSpaceOnUse"
       gradientTransform="matrix(5.9590967,0,0,5.9590967,13.379974,10.422362)">
      <stop
         stop-color="#B0E9FF"
         stop-opacity="0"
         id="stop281" />
      <stop
         offset="0.9987"
         stop-color="#B0E9FF"
         stop-opacity="0.75"
         id="stop283" />
    </radialGradient>
    <linearGradient
       id="paint34_linear"
       x1="13.4377"
       y1="10.3428"
       x2="18.2486"
       y2="22.0562"
       gradientUnits="userSpaceOnUse"
       gradientTransform="matrix(1.1913309,0,0,1.1913309,-2.2281281,-2.3000983)">
      <stop
         stop-color="#D1F2FF"
         stop-opacity="0"
         id="stop286" />
      <stop
         offset="1"
         stop-color="#80DAFE"
         id="stop288" />
    </linearGradient>
    <radialGradient
       id="paint35_radial"
       cx="0"
       cy="0"
       r="1"
       gradientUnits="userSpaceOnUse"
       gradientTransform="matrix(7.510281,0,0,7.510281,14.995896,11.828848)">
      <stop
         offset="0.4873"
         stop-color="#80DAFE"
         stop-opacity="0"
         id="stop291" />
      <stop
         offset="1"
         stop-color="#80DAFE"
         id="stop293" />
    </radialGradient>
    <radialGradient
       id="paint36_radial"
       cx="0"
       cy="0"
       r="1"
       gradientUnits="userSpaceOnUse"
       gradientTransform="matrix(1.1852029,1.3077937,-0.83850578,0.75990536,12.782641,12.900569)">
      <stop
         stop-color="white"
         stop-opacity="0.5"
         id="stop296" />
      <stop
         offset="1"
         stop-color="white"
         stop-opacity="0"
         id="stop298" />
    </radialGradient>
    <linearGradient
       id="paint37_linear"
       x1="19.1098"
       y1="7.22724"
       x2="19.4669"
       y2="8.48914"
       gradientUnits="userSpaceOnUse"
       gradientTransform="matrix(1.1913309,0,0,1.1913309,-2.2281281,-2.3000983)">
      <stop
         stop-color="#F93230"
         id="stop301" />
      <stop
         offset="1"
         stop-color="#C20000"
         id="stop303" />
    </linearGradient>
    <linearGradient
       id="paint38_linear"
       x1="8.1407"
       y1="9.23159"
       x2="8.11213"
       y2="7.58398"
       gradientUnits="userSpaceOnUse"
       gradientTransform="matrix(1.1913309,0,0,1.1913309,-2.2281281,-2.3000983)">
      <stop
         stop-color="#939FA1"
         id="stop306" />
      <stop
         offset="1"
         id="stop308" />
    </linearGradient>
    <linearGradient
       id="paint39_linear"
       x1="8.11831"
       y1="8.68015"
       x2="8.11831"
       y2="7.45095"
       gradientUnits="userSpaceOnUse"
       gradientTransform="matrix(1.1913309,0,0,1.1913309,-2.2281281,-2.3000983)">
      <stop
         stop-color="#939FA1"
         id="stop311" />
      <stop
         offset="1"
         id="stop313" />
    </linearGradient>
    <linearGradient
       id="paint40_linear"
       x1="7.1165"
       y1="9.21377"
       x2="6.32364"
       y2="6.64235"
       gradientUnits="userSpaceOnUse"
       gradientTransform="matrix(1.1913309,0,0,1.1913309,-2.2281281,-2.3000983)">
      <stop
         stop-color="#BBCACC"
         id="stop316" />
      <stop
         offset="0.4234"
         stop-color="#8EA5A8"
         id="stop318" />
      <stop
         offset="1"
         stop-color="#CFDCDE"
         id="stop320" />
    </linearGradient>
    <linearGradient
       id="paint41_linear"
       x1="6.41429"
       y1="7.92608"
       x2="5.71786"
       y2="6.22449"
       gradientUnits="userSpaceOnUse"
       gradientTransform="matrix(1.1913309,0,0,1.1913309,-2.2281281,-2.3000983)">
      <stop
         stop-color="#8EA5A8"
         id="stop323" />
      <stop
         offset="1"
         stop-color="#CFDCDE"
         id="stop325" />
    </linearGradient>
    <linearGradient
       id="paint42_linear"
       x1="6.78669"
       y1="7.79028"
       x2="6.08947"
       y2="6.08679"
       gradientUnits="userSpaceOnUse"
       gradientTransform="matrix(1.1913309,0,0,1.1913309,-2.2281281,-2.3000983)">
      <stop
         stop-color="#8EA5A8"
         id="stop328" />
      <stop
         offset="1"
         stop-color="#CFDCDE"
         id="stop330" />
    </linearGradient>
    <linearGradient
       id="paint43_linear"
       x1="6.57887"
       y1="7.86694"
       x2="5.88166"
       y2="6.16345"
       gradientUnits="userSpaceOnUse"
       gradientTransform="matrix(1.1913309,0,0,1.1913309,-2.2281281,-2.3000983)">
      <stop
         stop-color="#8EA5A8"
         id="stop333" />
      <stop
         offset="1"
         stop-color="#CFDCDE"
         id="stop335" />
    </linearGradient>
    <linearGradient
       id="paint44_linear"
       x1="6.99461"
       y1="7.71361"
       x2="6.2974"
       y2="6.01012"
       gradientUnits="userSpaceOnUse"
       gradientTransform="matrix(1.1913309,0,0,1.1913309,-2.2281281,-2.3000983)">
      <stop
         stop-color="#8EA5A8"
         id="stop338" />
      <stop
         offset="1"
         stop-color="#CFDCDE"
         id="stop340" />
    </linearGradient>
    <linearGradient
       id="paint45_linear"
       x1="6.26839"
       y1="7.97845"
       x2="5.57262"
       y2="6.27846"
       gradientUnits="userSpaceOnUse"
       gradientTransform="matrix(1.1913309,0,0,1.1913309,-2.2281281,-2.3000983)">
      <stop
         stop-color="#8EA5A8"
         id="stop343" />
      <stop
         offset="1"
         stop-color="#CFDCDE"
         id="stop345" />
    </linearGradient>
    <linearGradient
       id="paint46_linear"
       x1="7.30308"
       y1="7.59765"
       x2="6.60733"
       y2="5.89765"
       gradientUnits="userSpaceOnUse"
       gradientTransform="matrix(1.1913309,0,0,1.1913309,-2.2281281,-2.3000983)">
      <stop
         stop-color="#8EA5A8"
         id="stop348" />
      <stop
         offset="1"
         stop-color="#CFDCDE"
         id="stop350" />
    </linearGradient>
    <linearGradient
       id="paint47_linear"
       x1="7.15814"
       y1="7.65205"
       x2="6.46172"
       y2="5.95046"
       gradientUnits="userSpaceOnUse"
       gradientTransform="matrix(1.1913309,0,0,1.1913309,-2.2281281,-2.3000983)">
      <stop
         stop-color="#8EA5A8"
         id="stop353" />
      <stop
         offset="1"
         stop-color="#CFDCDE"
         id="stop355" />
    </linearGradient>
  </defs>
</svg>
